<svg xmlns="http://www.w3.org/2000/svg" viewBox="0 0 1200 630">
  <defs>
    <linearGradient id="bg" x1="0%" y1="0%" x2="100%" y2="100%">
      <stop offset="0%" style="stop-color:#0a0a0a"/>
      <stop offset="100%" style="stop-color:#1a1a2e"/>
    </linearGradient>
    <linearGradient id="accent" x1="0%" y1="0%" x2="100%" y2="0%">
      <stop offset="0%" style="stop-color:#2563eb"/>
      <stop offset="100%" style="stop-color:#3b82f6"/>
    </linearGradient>
  </defs>
  <rect width="1200" height="630" fill="url(#bg)"/>
  <!-- Grid pattern -->
  <g opacity="0.05">
    <line x1="0" y1="0" x2="0" y2="630" stroke="#fff" stroke-width="1"/>
    <line x1="100" y1="0" x2="100" y2="630" stroke="#fff" stroke-width="1"/>
    <line x1="200" y1="0" x2="200" y2="630" stroke="#fff" stroke-width="1"/>
    <line x1="300" y1="0" x2="300" y2="630" stroke="#fff" stroke-width="1"/>
    <line x1="400" y1="0" x2="400" y2="630" stroke="#fff" stroke-width="1"/>
    <line x1="500" y1="0" x2="500" y2="630" stroke="#fff" stroke-width="1"/>
    <line x1="600" y1="0" x2="600" y2="630" stroke="#fff" stroke-width="1"/>
    <line x1="700" y1="0" x2="700" y2="630" stroke="#fff" stroke-width="1"/>
    <line x1="800" y1="0" x2="800" y2="630" stroke="#fff" stroke-width="1"/>
    <line x1="900" y1="0" x2="900" y2="630" stroke="#fff" stroke-width="1"/>
    <line x1="1000" y1="0" x2="1000" y2="630" stroke="#fff" stroke-width="1"/>
    <line x1="1100" y1="0" x2="1100" y2="630" stroke="#fff" stroke-width="1"/>
    <line x1="0" y1="0" x2="1200" y2="0" stroke="#fff" stroke-width="1"/>
    <line x1="0" y1="100" x2="1200" y2="100" stroke="#fff" stroke-width="1"/>
    <line x1="0" y1="200" x2="1200" y2="200" stroke="#fff" stroke-width="1"/>
    <line x1="0" y1="300" x2="1200" y2="300" stroke="#fff" stroke-width="1"/>
    <line x1="0" y1="400" x2="1200" y2="400" stroke="#fff" stroke-width="1"/>
    <line x1="0" y1="500" x2="1200" y2="500" stroke="#fff" stroke-width="1"/>
    <line x1="0" y1="600" x2="1200" y2="600" stroke="#fff" stroke-width="1"/>
  </g>
  <!-- Magnifying glass icon -->
  <circle cx="600" cy="250" r="120" fill="none" stroke="url(#accent)" stroke-width="8" opacity="0.3"/>
  <circle cx="600" cy="250" r="80" fill="none" stroke="url(#accent)" stroke-width="6" opacity="0.5"/>
  <line x1="685" y1="335" x2="780" y2="430" stroke="url(#accent)" stroke-width="10" stroke-linecap="round" opacity="0.5"/>
  <!-- AI brain icon -->
  <circle cx="600" cy="240" r="40" fill="none" stroke="#2563eb" stroke-width="3"/>
  <path d="M580 240 Q600 220 620 240 Q600 260 580 240" fill="none" stroke="#3b82f6" stroke-width="2"/>
  <circle cx="590" cy="235" r="3" fill="#3b82f6"/>
  <circle cx="610" cy="235" r="3" fill="#3b82f6"/>
  <path d="M590 250 Q600 260 610 250" fill="none" stroke="#3b82f6" stroke-width="2"/>
  <!-- Detection waves -->
  <circle cx="600" cy="250" r="160" fill="none" stroke="#2563eb" stroke-width="1" opacity="0.15" stroke-dasharray="5,5"/>
  <circle cx="600" cy="250" r="200" fill="none" stroke="#2563eb" stroke-width="1" opacity="0.1" stroke-dasharray="3,7"/>
  <!-- Text -->
  <text x="600" y="430" font-family="system-ui,-apple-system,sans-serif" font-size="52" font-weight="800" fill="#ffffff" text-anchor="middle" letter-spacing="-1">AI Content Detection</text>
  <text x="600" y="480" font-family="system-ui,-apple-system,sans-serif" font-size="28" font-weight="500" fill="#3b82f6" text-anchor="middle">How Google Catches AI Writing in 2026</text>
  <text x="600" y="530" font-family="system-ui,-apple-system,sans-serif" font-size="16" fill="#888" text-anchor="middle">Free AI Text Tools — SEO Guide</text>
</svg>