<svg xmlns="http://www.w3.org/2000/svg" viewBox="0 0 800 450">
  <rect width="800" height="450" fill="#0a0a0a"/>
  <line x1="0" y1="50" x2="800" y2="50" stroke="#1a1a1a"/>
  <line x1="0" y1="100" x2="800" y2="100" stroke="#1a1a1a"/>
  <line x1="0" y1="150" x2="800" y2="150" stroke="#1a1a1a"/>
  <line x1="0" y1="200" x2="800" y2="200" stroke="#1a1a1a"/>
  <line x1="0" y1="250" x2="800" y2="250" stroke="#1a1a1a"/>
  <line x1="0" y1="300" x2="800" y2="300" stroke="#1a1a1a"/>
  <line x1="0" y1="350" x2="800" y2="350" stroke="#1a1a1a"/>
  <line x1="0" y1="400" x2="800" y2="400" stroke="#1a1a1a"/>
  <line x1="200" y1="0" x2="200" y2="450" stroke="#1a1a1a"/>
  <line x1="400" y1="0" x2="400" y2="450" stroke="#1a1a1a"/>
  <line x1="600" y1="0" x2="600" y2="450" stroke="#1a1a1a"/>
  <circle cx="200" cy="200" r="50" fill="none" stroke="#2563eb" stroke-width="3"/>
  <line x1="235" y1="235" x2="275" y2="275" stroke="#2563eb" stroke-width="4" stroke-linecap="round"/>
  <text x="175" y="210" fill="#2563eb" font-size="36" font-family="system-ui" font-weight="700">%</text>
  <text x="400" y="180" fill="#fafafa" font-size="30" text-anchor="middle" font-family="system-ui, sans-serif" font-weight="600">How to Check</text>
  <text x="400" y="225" fill="#fafafa" font-size="30" text-anchor="middle" font-family="system-ui, sans-serif" font-weight="600">Keyword Density</text>
  <text x="400" y="280" fill="#2563eb" font-size="14" text-anchor="middle" font-family="system-ui, sans-serif" font-weight="500">Step-by-Step Guide</text>
  <circle cx="400" cy="350" r="4" fill="#2563eb"/>
</svg>
