<svg xmlns="http://www.w3.org/2000/svg" viewBox="0 0 1200 630">
  <defs>
    <linearGradient id="bg" x1="0%" y1="0%" x2="100%" y2="100%">
      <stop offset="0%" style="stop-color:#0a0a0a"/>
      <stop offset="100%" style="stop-color:#0f172a"/>
    </linearGradient>
    <linearGradient id="glow" x1="0%" y1="0%" x2="100%" y2="100%">
      <stop offset="0%" style="stop-color:#2563eb;stop-opacity:0.3"/>
      <stop offset="100%" style="stop-color:#7c3aed;stop-opacity:0.1"/>
    </linearGradient>
  </defs>
  <rect width="1200" height="630" fill="url(#bg)"/>
  <!-- Radial glow -->
  <circle cx="600" cy="280" r="300" fill="url(#glow)" opacity="0.4"/>
  <!-- Grid dots -->
  <g opacity="0.08" fill="#fff">
    <circle cx="100" cy="100" r="1.5"/><circle cx="200" cy="100" r="1.5"/><circle cx="300" cy="100" r="1.5"/><circle cx="400" cy="100" r="1.5"/><circle cx="500" cy="100" r="1.5"/><circle cx="600" cy="100" r="1.5"/><circle cx="700" cy="100" r="1.5"/><circle cx="800" cy="100" r="1.5"/><circle cx="900" cy="100" r="1.5"/><circle cx="1000" cy="100" r="1.5"/><circle cx="1100" cy="100" r="1.5"/>
    <circle cx="100" cy="200" r="1.5"/><circle cx="200" cy="200" r="1.5"/><circle cx="300" cy="200" r="1.5"/><circle cx="400" cy="200" r="1.5"/><circle cx="500" cy="200" r="1.5"/><circle cx="600" cy="200" r="1.5"/><circle cx="700" cy="200" r="1.5"/><circle cx="800" cy="200" r="1.5"/><circle cx="900" cy="200" r="1.5"/><circle cx="1000" cy="200" r="1.5"/><circle cx="1100" cy="200" r="1.5"/>
    <circle cx="100" cy="300" r="1.5"/><circle cx="200" cy="300" r="1.5"/><circle cx="300" cy="300" r="1.5"/><circle cx="400" cy="300" r="1.5"/><circle cx="500" cy="300" r="1.5"/><circle cx="600" cy="300" r="1.5"/><circle cx="700" cy="300" r="1.5"/><circle cx="800" cy="300" r="1.5"/><circle cx="900" cy="300" r="1.5"/><circle cx="1000" cy="300" r="1.5"/><circle cx="1100" cy="300" r="1.5"/>
    <circle cx="100" cy="400" r="1.5"/><circle cx="200" cy="400" r="1.5"/><circle cx="300" cy="400" r="1.5"/><circle cx="400" cy="400" r="1.5"/><circle cx="500" cy="400" r="1.5"/><circle cx="600" cy="400" r="1.5"/><circle cx="700" cy="400" r="1.5"/><circle cx="800" cy="400" r="1.5"/><circle cx="900" cy="400" r="1.5"/><circle cx="1000" cy="400" r="1.5"/><circle cx="1100" cy="400" r="1.5"/>
    <circle cx="100" cy="500" r="1.5"/><circle cx="200" cy="500" r="1.5"/><circle cx="300" cy="500" r="1.5"/><circle cx="400" cy="500" r="1.5"/><circle cx="500" cy="500" r="1.5"/><circle cx="600" cy="500" r="1.5"/><circle cx="700" cy="500" r="1.5"/><circle cx="800" cy="500" r="1.5"/><circle cx="900" cy="500" r="1.5"/><circle cx="1000" cy="500" r="1.5"/><circle cx="1100" cy="500" r="1.5"/>
  </g>
  <!-- Fan-out lines from center -->
  <g stroke="#2563eb" stroke-width="2" opacity="0.4">
    <line x1="600" y1="220" x2="300" y2="120"/>
    <line x1="600" y1="220" x2="450" y2="100"/>
    <line x1="600" y1="220" x2="600" y2="90"/>
    <line x1="600" y1="220" x2="750" y2="100"/>
    <line x1="600" y1="220" x2="900" y2="120"/>
  </g>
  <!-- Nodes -->
  <circle cx="600" cy="220" r="20" fill="#2563eb" opacity="0.8"/>
  <circle cx="300" cy="120" r="10" fill="#3b82f6" opacity="0.6"/>
  <circle cx="450" cy="100" r="10" fill="#3b82f6" opacity="0.6"/>
  <circle cx="600" cy="90" r="10" fill="#3b82f6" opacity="0.6"/>
  <circle cx="750" cy="100" r="10" fill="#3b82f6" opacity="0.6"/>
  <circle cx="900" cy="120" r="10" fill="#3b82f6" opacity="0.6"/>
  <!-- Labels on nodes -->
  <text x="300" y="148" font-family="system-ui,sans-serif" font-size="9" fill="#94a3b8" text-anchor="middle">sub-query 1</text>
  <text x="450" y="128" font-family="system-ui,sans-serif" font-size="9" fill="#94a3b8" text-anchor="middle">sub-query 2</text>
  <text x="600" y="118" font-family="system-ui,sans-serif" font-size="9" fill="#94a3b8" text-anchor="middle">sub-query 3</text>
  <text x="750" y="128" font-family="system-ui,sans-serif" font-size="9" fill="#94a3b8" text-anchor="middle">sub-query 4</text>
  <text x="900" y="148" font-family="system-ui,sans-serif" font-size="9" fill="#94a3b8" text-anchor="middle">sub-query 5</text>
  <!-- Main query label -->
  <rect x="510" y="245" width="180" height="32" fill="#2563eb" rx="16" opacity="0.9"/>
  <text x="600" y="266" font-family="system-ui,sans-serif" font-size="13" font-weight="600" fill="#fff" text-anchor="middle">Main Query</text>
  <!-- Text -->
  <text x="600" y="370" font-family="system-ui,-apple-system,sans-serif" font-size="50" font-weight="800" fill="#ffffff" text-anchor="middle" letter-spacing="-1.5">Query Fan-Out</text>
  <text x="600" y="420" font-family="system-ui,-apple-system,sans-serif" font-size="26" font-weight="500" fill="#3b82f6" text-anchor="middle">The SEO Trend Changing Google Search in 2026</text>
  <text x="600" y="465" font-family="system-ui,-apple-system,sans-serif" font-size="15" fill="#64748b" text-anchor="middle">+2,550% Year-over-Year Growth</text>
  <!-- Bottom bar -->
  <rect x="0" y="590" width="1200" height="40" fill="#2563eb" opacity="0.15"/>
  <text x="600" y="616" font-family="system-ui,-apple-system,sans-serif" font-size="13" fill="#94a3b8" text-anchor="middle">Free AI Text Tools — SEO Strategy Guide 2026</text>
</svg>