<svg xmlns="http://www.w3.org/2000/svg" viewBox="0 0 1200 630">
  <defs>
    <linearGradient id="bg" x1="0%" y1="0%" x2="100%" y2="100%">
      <stop offset="0%" style="stop-color:#0a0a0a"/>
      <stop offset="100%" style="stop-color:#0f172a"/>
    </linearGradient>
    <linearGradient id="glow" x1="0%" y1="0%" x2="100%" y2="100%">
      <stop offset="0%" style="stop-color:#2563eb;stop-opacity:0.25"/>
      <stop offset="100%" style="stop-color:#7c3aed;stop-opacity:0.1"/>
    </linearGradient>
  </defs>
  <rect width="1200" height="630" fill="url(#bg)"/>
  <circle cx="600" cy="250" r="280" fill="url(#glow)" opacity="0.35"/>
  <g opacity="0.06" fill="#fff">
    <circle cx="100" cy="80" r="1.5"/><circle cx="200" cy="80" r="1.5"/><circle cx="300" cy="80" r="1.5"/><circle cx="400" cy="80" r="1.5"/><circle cx="500" cy="80" r="1.5"/><circle cx="600" cy="80" r="1.5"/><circle cx="700" cy="80" r="1.5"/><circle cx="800" cy="80" r="1.5"/><circle cx="900" cy="80" r="1.5"/><circle cx="1000" cy="80" r="1.5"/><circle cx="1100" cy="80" r="1.5"/>
    <circle cx="100" cy="160" r="1.5"/><circle cx="200" cy="160" r="1.5"/><circle cx="300" cy="160" r="1.5"/><circle cx="400" cy="160" r="1.5"/><circle cx="500" cy="160" r="1.5"/><circle cx="600" cy="160" r="1.5"/><circle cx="700" cy="160" r="1.5"/><circle cx="800" cy="160" r="1.5"/><circle cx="900" cy="160" r="1.5"/><circle cx="1000" cy="160" r="1.5"/><circle cx="1100" cy="160" r="1.5"/>
    <circle cx="100" cy="240" r="1.5"/><circle cx="200" cy="240" r="1.5"/><circle cx="300" cy="240" r="1.5"/><circle cx="400" cy="240" r="1.5"/><circle cx="500" cy="240" r="1.5"/><circle cx="600" cy="240" r="1.5"/><circle cx="700" cy="240" r="1.5"/><circle cx="800" cy="240" r="1.5"/><circle cx="900" cy="240" r="1.5"/><circle cx="1000" cy="240" r="1.5"/><circle cx="1100" cy="240" r="1.5"/>
    <circle cx="100" cy="320" r="1.5"/><circle cx="200" cy="320" r="1.5"/><circle cx="300" cy="320" r="1.5"/><circle cx="400" cy="320" r="1.5"/><circle cx="500" cy="320" r="1.5"/><circle cx="600" cy="320" r="1.5"/><circle cx="700" cy="320" r="1.5"/><circle cx="800" cy="320" r="1.5"/><circle cx="900" cy="320" r="1.5"/><circle cx="1000" cy="320" r="1.5"/><circle cx="1100" cy="320" r="1.5"/>
  </g>
  <!-- AI Overview box simulation -->
  <rect x="200" y="100" width="800" height="180" rx="12" fill="#1e293b" opacity="0.6" stroke="#334155" stroke-width="1"/>
  <rect x="220" y="120" width="60" height="60" rx="8" fill="#2563eb" opacity="0.3"/>
  <text x="250" y="158" font-family="system-ui,sans-serif" font-size="28" fill="#3b82f6" text-anchor="middle">AI</text>
  <text x="300" y="145" font-family="system-ui,sans-serif" font-size="14" fill="#e2e8f0" font-weight="600">AI Overview</text>
  <text x="300" y="165" font-family="system-ui,sans-serif" font-size="11" fill="#94a3b8">Your content here, cited as the source</text>
  <text x="300" y="185" font-family="system-ui,sans-serif" font-size="11" fill="#64748b">47% of citations come from positions 4-10</text>
  <text x="300" y="205" font-family="system-ui,sans-serif" font-size="11" fill="#64748b">The model extracts your exact words</text>
  <!-- Citation link -->
  <rect x="220" y="220" width="120" height="30" rx="6" fill="#2563eb" opacity="0.2"/>
  <text x="280" y="240" font-family="system-ui,sans-serif" font-size="11" fill="#3b82f6" text-anchor="middle">View Sources</text>
  <!-- Main title -->
  <text x="600" y="370" font-family="system-ui,-apple-system,sans-serif" font-size="46" font-weight="800" fill="#ffffff" text-anchor="middle" letter-spacing="-1.5">How to Get Cited in</text>
  <text x="600" y="420" font-family="system-ui,-apple-system,sans-serif" font-size="46" font-weight="800" fill="#2563eb" text-anchor="middle" letter-spacing="-1.5">Google AI Overviews</text>
  <text x="600" y="460" font-family="system-ui,-apple-system,sans-serif" font-size="20" font-weight="500" fill="#94a3b8" text-anchor="middle">The 2026 Playbook</text>
  <text x="600" y="495" font-family="system-ui,-apple-system,sans-serif" font-size="14" fill="#64748b" text-anchor="middle">9-Factor Checklist + Content Templates + Schema Markup Guide</text>
  <rect x="0" y="590" width="1200" height="40" fill="#2563eb" opacity="0.12"/>
  <text x="600" y="616" font-family="system-ui,-apple-system,sans-serif" font-size="13" fill="#94a3b8" text-anchor="middle">Free AI Text Tools — SEO Strategy Guide 2026</text>
</svg>