<svg xmlns="http://www.w3.org/2000/svg" viewBox="0 0 1200 630" fill="none">
  <rect width="1200" height="630" fill="#0a0a0a"/>
  <rect x="40" y="40" width="1120" height="550" rx="16" fill="#141414" stroke="#262626" stroke-width="1"/>
  <!-- Social network nodes -->
  <circle cx="600" cy="280" r="40" fill="#2563eb"/>
  <text x="588" y="288" font-family="DM Sans,sans-serif" font-size="20" font-weight="800" fill="#fff">@</text>
  <!-- Connected nodes -->
  <circle cx="380" cy="180" r="24" fill="#1d4ed8"/><text x="370" y="188" font-family="DM Sans,sans-serif" font-size="14" fill="#fff">f</text>
  <circle cx="820" cy="180" r="24" fill="#3b82f6"/><text x="810" y="188" font-family="DM Sans,sans-serif" font-size="14" fill="#fff">in</text>
  <circle cx="340" cy="380" r="24" fill="#1d4ed8"/><text x="328" y="388" font-family="DM Sans,sans-serif" font-size="14" fill="#fff">X</text>
  <circle cx="860" cy="380" r="24" fill="#3b82f6"/><text x="848" y="388" font-family="DM Sans,sans-serif" font-size="14" fill="#fff">yt</text>
  <circle cx="600" cy="140" r="20" fill="#2563eb" opacity="0.6"/>
  <circle cx="600" cy="420" r="20" fill="#2563eb" opacity="0.6"/>
  <circle cx="440" cy="280" r="18" fill="#3b82f6" opacity="0.5"/>
  <circle cx="760" cy="280" r="18" fill="#3b82f6" opacity="0.5"/>
  <!-- Connection lines -->
  <line x1="404" y1="180" x2="560" y2="280" stroke="#2563eb" stroke-width="1.5" opacity="0.4"/>
  <line x1="640" y1="280" x2="796" y2="180" stroke="#2563eb" stroke-width="1.5" opacity="0.4"/>
  <line x1="364" y1="380" x2="560" y2="280" stroke="#2563eb" stroke-width="1.5" opacity="0.4"/>
  <line x1="640" y1="280" x2="836" y2="380" stroke="#2563eb" stroke-width="1.5" opacity="0.4"/>
  <line x1="600" y1="160" x2="600" y2="240" stroke="#2563eb" stroke-width="1.5" opacity="0.3"/>
  <line x1="600" y1="320" x2="600" y2="400" stroke="#2563eb" stroke-width="1.5" opacity="0.3"/>
  <line x1="458" y1="280" x2="560" y2="280" stroke="#2563eb" stroke-width="1.5" opacity="0.3"/>
  <line x1="640" y1="280" x2="742" y2="280" stroke="#2563eb" stroke-width="1.5" opacity="0.3"/>
  <!-- Share/broadcast waves -->
  <circle cx="600" cy="280" r="70" stroke="#2563eb" stroke-width="0.5" fill="none" opacity="0.2"/>
  <circle cx="600" cy="280" r="100" stroke="#2563eb" stroke-width="0.5" fill="none" opacity="0.1"/>
  <!-- Title -->
  <text x="100" y="130" font-family="DM Sans,system-ui,sans-serif" font-size="42" font-weight="800" fill="#fafafa" letter-spacing="-1">Social Media</text>
  <text x="100" y="530" font-family="DM Sans,system-ui,sans-serif" font-size="16" fill="#737373">KwordSEO</text>
</svg>
