<svg xmlns="http://www.w3.org/2000/svg" viewBox="0 0 1200 630" fill="none">
  <rect width="1200" height="630" fill="#0a0a0a"/>
  <rect x="40" y="40" width="1120" height="550" rx="16" fill="#141414" stroke="#262626" stroke-width="1"/>
  <!-- Step indicators -->
  <g>
    <circle cx="200" cy="260" r="32" fill="#2563eb"/><text x="190" y="268" font-family="DM Sans,system-ui,sans-serif" font-size="20" font-weight="800" fill="#fff">1</text>
    <circle cx="400" cy="260" r="32" fill="#1d4ed8"/><text x="390" y="268" font-family="DM Sans,system-ui,sans-serif" font-size="20" font-weight="800" fill="#fff">2</text>
    <circle cx="600" cy="260" r="32" fill="#2563eb"/><text x="590" y="268" font-family="DM Sans,system-ui,sans-serif" font-size="20" font-weight="800" fill="#fff">3</text>
    <circle cx="800" cy="260" r="32" fill="#3b82f6"/><text x="790" y="268" font-family="DM Sans,system-ui,sans-serif" font-size="20" font-weight="800" fill="#fff">4</text>
    <!-- Arrows -->
    <path d="M232 260 L368 260" stroke="#2563eb" stroke-width="2" opacity="0.5"/>
    <path d="M240 260 L252 252 M240 260 L252 268" stroke="#2563eb" stroke-width="2" opacity="0.5"/>
    <path d="M432 260 L568 260" stroke="#2563eb" stroke-width="2" opacity="0.5"/>
    <path d="M440 260 L452 252 M440 260 L452 268" stroke="#2563eb" stroke-width="2" opacity="0.5"/>
    <path d="M632 260 L768 260" stroke="#2563eb" stroke-width="2" opacity="0.5"/>
    <path d="M640 260 L652 252 M640 260 L652 268" stroke="#2563eb" stroke-width="2" opacity="0.5"/>
  </g>
  <!-- Code/terminal blocks -->
  <rect x="120" y="330" width="160" height="60" rx="8" fill="#1a1a2e" stroke="#262626" stroke-width="1"/>
  <text x="136" y="354" font-family="DM Mono,monospace" font-size="11" fill="#737373">$ npm run</text>
  <text x="136" y="372" font-family="DM Mono,monospace" font-size="11" fill="#4ade80">  build</text>
  <rect x="340" y="330" width="160" height="60" rx="8" fill="#1a1a2e" stroke="#262626" stroke-width="1"/>
  <text x="356" y="354" font-family="DM Mono,monospace" font-size="11" fill="#737373">// config.js</text>
  <text x="356" y="372" font-family="DM Mono,monospace" font-size="11" fill="#60a5fa">  module</text>
  <rect x="560" y="330" width="160" height="60" rx="8" fill="#1a1a2e" stroke="#262626" stroke-width="1"/>
  <text x="576" y="354" font-family="DM Mono,monospace" font-size="11" fill="#737373">Test: </text>
  <text x="576" y="372" font-family="DM Mono,monospace" font-size="11" fill="#4ade80">  PASS ✓</text>
  <rect x="780" y="330" width="160" height="60" rx="8" fill="#1a1a2e" stroke="#262626" stroke-width="1"/>
  <text x="796" y="354" font-family="DM Mono,monospace" font-size="11" fill="#737373">Deploy: </text>
  <text x="796" y="372" font-family="DM Mono,monospace" font-size="11" fill="#2563eb">  LIVE</text>
  <!-- Title -->
  <text x="100" y="130" font-family="DM Sans,system-ui,sans-serif" font-size="42" font-weight="800" fill="#fafafa" letter-spacing="-1">SEO Tutorials</text>
  <text x="100" y="530" font-family="DM Sans,system-ui,sans-serif" font-size="16" fill="#737373">KwordSEO</text>
</svg>
