<svg xmlns="http://www.w3.org/2000/svg" viewBox="0 0 1200 630" fill="none">
  <rect width="1200" height="630" fill="#0a0a0a"/>
  <rect x="40" y="40" width="1120" height="550" rx="16" fill="#141414" stroke="#262626" stroke-width="1"/>
  <!-- Wrench icon -->
  <path d="M260 200 L320 260 L280 300 L240 260 Z" stroke="#2563eb" stroke-width="2.5" fill="none"/>
  <circle cx="240" cy="200" r="30" stroke="#2563eb" stroke-width="2.5" fill="none"/>
  <circle cx="240" cy="200" r="12" fill="#2563eb" opacity="0.3"/>
  <!-- Screwdriver -->
  <line x1="380" y1="180" x2="380" y2="320" stroke="#3b82f6" stroke-width="3"/>
  <rect x="370" y="170" width="20" height="30" rx="4" fill="#3b82f6" opacity="0.6"/>
  <!-- Tool cards -->
  <rect x="500" y="140" width="280" height="70" rx="8" fill="#1a1a2e" stroke="#262626" stroke-width="1"/>
  <rect x="520" y="155" width="40" height="40" rx="8" fill="#2563eb" opacity="0.2"/>
  <text x="530" y="182" font-family="DM Sans,sans-serif" font-size="18" fill="#2563eb">W</text>
  <text x="575" y="170" font-family="DM Sans,sans-serif" font-size="13" font-weight="700" fill="#fafafa">Word Counter</text>
  <text x="575" y="190" font-family="DM Sans,sans-serif" font-size="11" fill="#737373">Count words &amp; characters</text>

  <rect x="500" y="220" width="280" height="70" rx="8" fill="#1a1a2e" stroke="#262626" stroke-width="1"/>
  <rect x="520" y="235" width="40" height="40" rx="8" fill="#2563eb" opacity="0.2"/>
  <text x="530" y="262" font-family="DM Sans,sans-serif" font-size="18" fill="#2563eb">J</text>
  <text x="575" y="250" font-family="DM Sans,sans-serif" font-size="13" font-weight="700" fill="#fafafa">JSON Formatter</text>
  <text x="575" y="270" font-family="DM Sans,sans-serif" font-size="11" fill="#737373">Beautify &amp; validate JSON</text>

  <rect x="500" y="300" width="280" height="70" rx="8" fill="#1a1a2e" stroke="#262626" stroke-width="1"/>
  <rect x="520" y="315" width="40" height="40" rx="8" fill="#2563eb" opacity="0.2"/>
  <text x="530" y="342" font-family="DM Sans,sans-serif" font-size="18" fill="#2563eb">M</text>
  <text x="575" y="330" font-family="DM Sans,sans-serif" font-size="13" font-weight="700" fill="#fafafa">Meta Generator</text>
  <text x="575" y="350" font-family="DM Sans,sans-serif" font-size="11" fill="#737373">Generate SEO meta tags</text>

  <rect x="500" y="380" width="280" height="70" rx="8" fill="#1a1a2e" stroke="#262626" stroke-width="1"/>
  <rect x="520" y="395" width="40" height="40" rx="8" fill="#2563eb" opacity="0.2"/>
  <text x="530" y="422" font-family="DM Sans,sans-serif" font-size="18" fill="#2563eb">S</text>
  <text x="575" y="410" font-family="DM Sans,sans-serif" font-size="13" font-weight="700" fill="#fafafa">Schema Generator</text>
  <text x="575" y="430" font-family="DM Sans,sans-serif" font-size="11" fill="#737373">Structured data markup</text>

  <!-- Arrow -->
  <path d="M420 260 L500 175" stroke="#2563eb" stroke-width="1.5" opacity="0.3" stroke-dasharray="4 4"/>
  <path d="M420 260 L500 255" stroke="#2563eb" stroke-width="1.5" opacity="0.3" stroke-dasharray="4 4"/>
  <path d="M420 260 L500 335" stroke="#2563eb" stroke-width="1.5" opacity="0.3" stroke-dasharray="4 4"/>
  <path d="M420 260 L500 415" stroke="#2563eb" stroke-width="1.5" opacity="0.3" stroke-dasharray="4 4"/>

  <!-- Title -->
  <text x="100" y="130" font-family="DM Sans,system-ui,sans-serif" font-size="42" font-weight="800" fill="#fafafa" letter-spacing="-1">Tools Tutorials</text>
  <text x="100" y="530" font-family="DM Sans,system-ui,sans-serif" font-size="16" fill="#737373">KwordSEO</text>
</svg>
