<svg xmlns="http://www.w3.org/2000/svg" width="1200" height="630" viewBox="0 0 1200 630">
  <defs>
    <linearGradient id="bg" x1="0%" y1="0%" x2="100%" y2="100%">
      <stop offset="0%" style="stop-color:#020617"/>
      <stop offset="35%" style="stop-color:#0F172A"/>
      <stop offset="65%" style="stop-color:#1E293B"/>
      <stop offset="100%" style="stop-color:#0F172A"/>
    </linearGradient>
    <linearGradient id="red" x1="0%" y1="0%" x2="100%" y2="0%">
      <stop offset="0%" style="stop-color:#DC2626"/>
      <stop offset="100%" style="stop-color:#EF4444"/>
    </linearGradient>
    <linearGradient id="green" x1="0%" y1="0%" x2="100%" y2="0%">
      <stop offset="0%" style="stop-color:#16A34A"/>
      <stop offset="100%" style="stop-color:#22C55E"/>
    </linearGradient>
    <radialGradient id="glow1" cx="70%" cy="30%" r="35%">
      <stop offset="0%" style="stop-color:#DC2626;stop-opacity:0.1"/>
      <stop offset="100%" style="stop-color:#DC2626;stop-opacity:0"/>
    </radialGradient>
    <filter id="shadow"><feDropShadow dx="0" dy="6" stdDeviation="16" flood-color="#000" flood-opacity="0.45"/></filter>
    <filter id="glow"><feGaussianBlur stdDeviation="3" result="b"/><feMerge><feMergeNode in="b"/><feMergeNode in="SourceGraphic"/></feMerge></filter>
    <clipPath id="clip"><rect x="0" y="0" width="1200" height="630" rx="12"/></clipPath>
  </defs>
  <g clip-path="url(#clip)">
    <rect width="1200" height="630" fill="url(#bg)"/>
    <circle cx="950" cy="120" r="280" fill="url(#glow1)"/>
    <circle cx="100" cy="530" r="180" fill="#DC2626" opacity="0.03"/>
    <g opacity="0.06">
      <line x1="0" y1="80" x2="1200" y2="80" stroke="#334155" stroke-width="0.5"/>
      <line x1="0" y1="160" x2="1200" y2="160" stroke="#334155" stroke-width="0.5"/>
      <line x1="0" y1="240" x2="1200" y2="240" stroke="#334155" stroke-width="0.5"/>
      <line x1="0" y1="320" x2="1200" y2="320" stroke="#334155" stroke-width="0.5"/>
      <line x1="0" y1="400" x2="1200" y2="400" stroke="#334155" stroke-width="0.5"/>
      <line x1="0" y1="480" x2="1200" y2="480" stroke="#334155" stroke-width="0.5"/>
      <line x1="120" y1="0" x2="120" y2="630" stroke="#334155" stroke-width="0.5"/>
      <line x1="240" y1="0" x2="240" y2="630" stroke="#334155" stroke-width="0.5"/>
      <line x1="360" y1="0" x2="360" y2="630" stroke="#334155" stroke-width="0.5"/>
      <line x1="480" y1="0" x2="480" y2="630" stroke="#334155" stroke-width="0.5"/>
      <line x1="600" y1="0" x2="600" y2="630" stroke="#334155" stroke-width="0.5"/>
      <line x1="720" y1="0" x2="720" y2="630" stroke="#334155" stroke-width="0.5"/>
      <line x1="840" y1="0" x2="840" y2="630" stroke="#334155" stroke-width="0.5"/>
      <line x1="960" y1="0" x2="960" y2="630" stroke="#334155" stroke-width="0.5"/>
      <line x1="1080" y1="0" x2="1080" y2="630" stroke="#334155" stroke-width="0.5"/>
    </g>
    <rect x="80" y="140" width="520" height="6" rx="3" fill="url(#red)" opacity="0.5"/>
    <rect x="80" y="162" width="420" height="4" rx="2" fill="#475569" opacity="0.4"/>
    <rect x="80" y="180" width="480" height="4" rx="2" fill="#475569" opacity="0.25"/>
    <text x="80" y="100" font-family="Arial,sans-serif" font-size="20" fill="#64748B" font-weight="600" letter-spacing="3">POLICY UPDATE · JULY 2026</text>
    <text x="80" y="135" font-family="Arial,sans-serif" font-size="52" font-weight="bold" fill="white" letter-spacing="-2">Google Now Treats</text>
    <text x="80" y="135" font-family="Arial,sans-serif" font-size="52" font-weight="bold" fill="white" dy="55" letter-spacing="-2">AI Overview Spam as Real Spam</text>
    <g filter="url(#glow)">
      <text x="80" y="285" font-family="Arial,sans-serif" font-size="30" fill="#EF4444" font-weight="700">Manipulating AI Answers = Penalties</text>
    </g>
    <rect x="80" y="315" width="200" height="4" rx="2" fill="url(#red)"/>
    <text x="80" y="360" font-family="Arial,sans-serif" font-size="16" fill="#94A3B8">New spam policies · Official AI optimization guide · Search Console controls</text>
    <rect x="80" y="400" width="220" height="48" rx="24" fill="url(#red)"/>
    <text x="190" y="430" font-family="Arial,sans-serif" font-size="16" fill="white" text-anchor="middle" font-weight="600">Read the Analysis</text>
    <g filter="url(#shadow)">
      <rect x="780" y="100" width="360" height="420" rx="20" fill="#1E293B" stroke="#334155" stroke-width="1.5"/>
      <rect x="780" y="100" width="360" height="420" rx="20" fill="#DC2626" opacity="0.03"/>
      <text x="960" y="155" font-family="Arial,sans-serif" font-size="13" fill="#64748B" text-anchor="middle" font-weight="600" letter-spacing="2">WHAT CHANGED</text>
      <g>
        <circle cx="840" cy="200" r="16" fill="#DC2626" opacity="0.15"/>
        <text x="840" y="206" font-family="Arial,sans-serif" font-size="14" fill="#EF4444" text-anchor="middle" font-weight="bold">1</text>
        <text x="870" y="206" font-family="Arial,sans-serif" font-size="14" fill="white">AI citation buying = spam</text>
      </g>
      <g>
        <circle cx="840" cy="245" r="16" fill="#DC2626" opacity="0.15"/>
        <text x="840" y="251" font-family="Arial,sans-serif" font-size="14" fill="#EF4444" text-anchor="middle" font-weight="bold">2</text>
        <text x="870" y="251" font-family="Arial,sans-serif" font-size="14" fill="white">Fake AI mentions banned</text>
      </g>
      <g>
        <circle cx="840" cy="290" r="16" fill="#DC2626" opacity="0.15"/>
        <text x="840" y="296" font-family="Arial,sans-serif" font-size="14" fill="#EF4444" text-anchor="middle" font-weight="bold">3</text>
        <text x="870" y="296" font-family="Arial,sans-serif" font-size="14" fill="white">Disclosure required</text>
      </g>
      <rect x="830" y="320" width="260" height="1" fill="#334155" opacity="0.5"/>
      <text x="960" y="355" font-family="Arial,sans-serif" font-size="13" fill="#64748B" text-anchor="middle" font-weight="600" letter-spacing="2">WHAT STILL WORKS</text>
      <g>
        <circle cx="840" cy="395" r="16" fill="#16A34A" opacity="0.15"/>
        <text x="840" y="401" font-family="Arial,sans-serif" font-size="14" fill="#22C55E" text-anchor="middle" font-weight="bold">✓</text>
        <text x="870" y="401" font-family="Arial,sans-serif" font-size="14" fill="white">E-E-A-T content</text>
      </g>
      <g>
        <circle cx="840" cy="435" r="16" fill="#16A34A" opacity="0.15"/>
        <text x="840" y="441" font-family="Arial,sans-serif" font-size="14" fill="#22C55E" text-anchor="middle" font-weight="bold">✓</text>
        <text x="870" y="441" font-family="Arial,sans-serif" font-size="14" fill="white">Schema markup</text>
      </g>
      <g>
        <circle cx="840" cy="475" r="16" fill="#16A34A" opacity="0.15"/>
        <text x="840" y="481" font-family="Arial,sans-serif" font-size="14" fill="#22C55E" text-anchor="middle" font-weight="bold">✓</text>
        <text x="870" y="481" font-family="Arial,sans-serif" font-size="14" fill="white">Original research</text>
      </g>
    </g>
  </g>
</svg>