<svg xmlns="http://www.w3.org/2000/svg" width="1200" height="630" viewBox="0 0 1200 630">
  <defs>
    <linearGradient id="bg" x1="0%" y1="0%" x2="100%" y2="100%">
      <stop offset="0%" style="stop-color:#020617"/>
      <stop offset="35%" style="stop-color:#0F172A"/>
      <stop offset="65%" style="stop-color:#1E293B"/>
      <stop offset="100%" style="stop-color:#0F172A"/>
    </linearGradient>
    <linearGradient id="purple" x1="0%" y1="0%" x2="100%" y2="0%">
      <stop offset="0%" style="stop-color:#7C3AED"/>
      <stop offset="50%" style="stop-color:#8B5CF6"/>
      <stop offset="100%" style="stop-color:#A78BFA"/>
    </linearGradient>
    <linearGradient id="blue" x1="0%" y1="0%" x2="100%" y2="0%">
      <stop offset="0%" style="stop-color:#2563EB"/>
      <stop offset="100%" style="stop-color:#60A5FA"/>
    </linearGradient>
    <radialGradient id="glow1" cx="70%" cy="30%" r="40%">
      <stop offset="0%" style="stop-color:#8B5CF6;stop-opacity:0.12"/>
      <stop offset="100%" style="stop-color:#8B5CF6;stop-opacity:0"/>
    </radialGradient>
    <radialGradient id="glow2" cx="20%" cy="80%" r="30%">
      <stop offset="0%" style="stop-color:#2563EB;stop-opacity:0.08"/>
      <stop offset="100%" style="stop-color:#2563EB;stop-opacity:0"/>
    </radialGradient>
    <filter id="textGlow">
      <feGaussianBlur stdDeviation="3" result="blur"/>
      <feMerge><feMergeNode in="blur"/><feMergeNode in="SourceGraphic"/></feMerge>
    </filter>
    <filter id="cardShadow">
      <feDropShadow dx="0" dy="8" stdDeviation="20" flood-color="#000" flood-opacity="0.5"/>
    </filter>
    <clipPath id="roundedClip"><rect x="0" y="0" width="1200" height="630" rx="12"/></clipPath>
  </defs>
  <g clip-path="url(#roundedClip)">
    <rect width="1200" height="630" fill="url(#bg)"/>
    <circle cx="900" cy="100" r="300" fill="url(#glow1)"/>
    <circle cx="150" cy="530" r="200" fill="url(#glow2)"/>
    <g opacity="0.08">
      <line x1="0" y1="80" x2="1200" y2="80" stroke="#334155" stroke-width="0.5"/>
      <line x1="0" y1="160" x2="1200" y2="160" stroke="#334155" stroke-width="0.5"/>
      <line x1="0" y1="240" x2="1200" y2="240" stroke="#334155" stroke-width="0.5"/>
      <line x1="0" y1="320" x2="1200" y2="320" stroke="#334155" stroke-width="0.5"/>
      <line x1="0" y1="400" x2="1200" y2="400" stroke="#334155" stroke-width="0.5"/>
      <line x1="0" y1="480" x2="1200" y2="480" stroke="#334155" stroke-width="0.5"/>
      <line x1="0" y1="560" x2="1200" y2="560" stroke="#334155" stroke-width="0.5"/>
      <line x1="120" y1="0" x2="120" y2="630" stroke="#334155" stroke-width="0.5"/>
      <line x1="240" y1="0" x2="240" y2="630" stroke="#334155" stroke-width="0.5"/>
      <line x1="360" y1="0" x2="360" y2="630" stroke="#334155" stroke-width="0.5"/>
      <line x1="480" y1="0" x2="480" y2="630" stroke="#334155" stroke-width="0.5"/>
      <line x1="600" y1="0" x2="600" y2="630" stroke="#334155" stroke-width="0.5"/>
      <line x1="720" y1="0" x2="720" y2="630" stroke="#334155" stroke-width="0.5"/>
      <line x1="840" y1="0" x2="840" y2="630" stroke="#334155" stroke-width="0.5"/>
      <line x1="960" y1="0" x2="960" y2="630" stroke="#334155" stroke-width="0.5"/>
      <line x1="1080" y1="0" x2="1080" y2="630" stroke="#334155" stroke-width="0.5"/>
    </g>
    <rect x="80" y="160" width="520" height="6" rx="3" fill="url(#purple)" opacity="0.5"/>
    <rect x="80" y="182" width="400" height="4" rx="2" fill="#475569" opacity="0.4"/>
    <rect x="80" y="200" width="460" height="4" rx="2" fill="#475569" opacity="0.25"/>
    <text x="80" y="100" font-family="Arial,sans-serif" font-size="20" fill="#64748B" font-weight="600" letter-spacing="3">SEO STRATEGY 2026</text>
    <text x="80" y="145" font-family="Arial,sans-serif" font-size="56" font-weight="bold" fill="white" letter-spacing="-2">How to Optimize</text>
    <text x="80" y="145" font-family="Arial,sans-serif" font-size="56" font-weight="bold" fill="white" dy="60" letter-spacing="-2">for Google AI Overviews</text>
    <g filter="url(#textGlow)">
      <text x="80" y="305" font-family="Arial,sans-serif" font-size="34" fill="#A78BFA" font-weight="700" letter-spacing="-0.5">Generative Engine Optimization</text>
      <text x="80" y="345" font-family="Arial,sans-serif" font-size="34" fill="#A78BFA" font-weight="700">(GEO)</text>
    </g>
    <rect x="80" y="380" width="200" height="4" rx="2" fill="url(#blue)"/>
    <text x="80" y="425" font-family="Arial,sans-serif" font-size="16" fill="#94A3B8" letter-spacing="0.5">1B+ AI Mode users · Conversational queries · Multimodal search</text>
    <rect x="80" y="460" width="200" height="48" rx="24" fill="url(#purple)"/>
    <text x="180" y="490" font-family="Arial,sans-serif" font-size="16" fill="white" text-anchor="middle" font-weight="600" letter-spacing="0.5">Read the Guide</text>
    <g filter="url(#cardShadow)">
      <rect x="800" y="100" width="340" height="420" rx="20" fill="#1E293B" stroke="#334155" stroke-width="1.5"/>
      <rect x="800" y="100" width="340" height="420" rx="20" fill="url(#purple)" opacity="0.03"/>
      <text x="970" y="160" font-family="Arial,sans-serif" font-size="13" fill="#64748B" text-anchor="middle" font-weight="600" letter-spacing="2">AI MODE STATS</text>
      <text x="970" y="235" font-family="Arial,sans-serif" font-size="56" fill="#A78BFA" text-anchor="middle" font-weight="bold">1B+</text>
      <text x="970" y="265" font-family="Arial,sans-serif" font-size="14" fill="#94A3B8" text-anchor="middle">Monthly Active Users</text>
      <rect x="860" y="285" width="220" height="1" fill="#334155" opacity="0.6"/>
      <text x="970" y="340" font-family="Arial,sans-serif" font-size="44" fill="#22C55E" text-anchor="middle" font-weight="bold">+40%</text>
      <text x="970" y="370" font-family="Arial,sans-serif" font-size="13" fill="#94A3B8" text-anchor="middle">Query Growth / Month</text>
      <rect x="860" y="390" width="220" height="1" fill="#334155" opacity="0.6"/>
      <text x="970" y="435" font-family="Arial,sans-serif" font-size="32" fill="#F59E0B" text-anchor="middle" font-weight="bold">1 in 6</text>
      <text x="970" y="462" font-family="Arial,sans-serif" font-size="12" fill="#94A3B8" text-anchor="middle">Searches Are Multimodal</text>
      <rect x="860" y="480" width="220" height="1" fill="#334155" opacity="0.6"/>
      <text x="970" y="508" font-family="Arial,sans-serif" font-size="11" fill="#64748B" text-anchor="middle" letter-spacing="1">SOURCE: GOOGLE 2026</text>
    </g>
  </g>
</svg>