<svg xmlns="http://www.w3.org/2000/svg" viewBox="0 0 1200 630">
  <defs>
    <linearGradient id="bg" x1="0%" y1="0%" x2="100%" y2="100%">
      <stop offset="0%" style="stop-color:#0a0a0a"/>
      <stop offset="100%" style="stop-color:#141414"/>
    </linearGradient>
  </defs>
  <rect width="1200" height="630" fill="url(#bg)"/>
  <line x1="0" y1="100" x2="1200" y2="100" stroke="#1a1a1a"/>
  <line x1="0" y1="200" x2="1200" y2="200" stroke="#1a1a1a"/>
  <line x1="0" y1="300" x2="1200" y2="300" stroke="#1a1a1a"/>
  <line x1="0" y1="400" x2="1200" y2="400" stroke="#1a1a1a"/>
  <line x1="0" y1="500" x2="1200" y2="500" stroke="#1a1a1a"/>
  <line x1="200" y1="0" x2="200" y2="630" stroke="#1a1a1a"/>
  <line x1="400" y1="0" x2="400" y2="630" stroke="#1a1a1a"/>
  <line x1="600" y1="0" x2="600" y2="630" stroke="#1a1a1a"/>
  <line x1="800" y1="0" x2="800" y2="630" stroke="#1a1a1a"/>
  <line x1="1000" y1="0" x2="1000" y2="630" stroke="#1a1a1a"/>
  <!-- Notepad icon -->
  <rect x="150" y="150" width="200" height="260" rx="8" fill="#171717" stroke="#262626"/>
  <line x1="170" y1="200" x2="330" y2="200" stroke="#2563eb" stroke-width="2"/>
  <line x1="170" y1="230" x2="310" y2="230" stroke="#3b82f6" stroke-width="2" opacity="0.7"/>
  <line x1="170" y1="260" x2="320" y2="260" stroke="#3b82f6" stroke-width="2" opacity="0.5"/>
  <line x1="170" y1="290" x2="290" y2="290" stroke="#3b82f6" stroke-width="2" opacity="0.3"/>
  <line x1="170" y1="320" x2="315" y2="320" stroke="#3b82f6" stroke-width="2" opacity="0.2"/>
  <!-- Pencil -->
  <line x1="340" y1="120" x2="400" y2="380" stroke="#2563eb" stroke-width="4" stroke-linecap="round"/>
  <polygon points="400,380 395,400 405,400" fill="#2563eb"/>
  <!-- SEO badge -->
  <rect x="120" y="430" width="80" height="32" rx="6" fill="#2563eb"/>
  <text x="160" y="451" fill="#fff" font-size="14" text-anchor="middle" font-family="system-ui, sans-serif" font-weight="600">SEO</text>
  <rect x="210" y="430" width="110" height="32" rx="6" fill="#171717" stroke="#262626"/>
  <text x="265" y="451" fill="#a3a3a3" font-size="14" text-anchor="middle" font-family="system-ui, sans-serif">WRITING</text>
  <!-- Text -->
  <text x="550" y="220" fill="#fafafa" font-size="24" font-family="system-ui, sans-serif" font-weight="600">SEO Content Writing</text>
  <text x="550" y="260" fill="#a3a3a3" font-size="16" font-family="system-ui, sans-serif">How to Write Content That Ranks</text>
  <text x="550" y="310" fill="#525252" font-size="14" font-family="system-ui, sans-serif">Step 1: Research  Step 2: Structure</text>
  <text x="550" y="335" fill="#525252" font-size="14" font-family="system-ui, sans-serif">Step 3: Write  Step 4: Optimize</text>
</svg>
