<svg xmlns="http://www.w3.org/2000/svg" viewBox="0 0 800 450">
  <rect width="800" height="450" fill="#0a0a0a"/>
  <line x1="0" y1="50" x2="800" y2="50" stroke="#1a1a1a"/>
  <line x1="0" y1="100" x2="800" y2="100" stroke="#1a1a1a"/>
  <line x1="0" y1="150" x2="800" y2="150" stroke="#1a1a1a"/>
  <line x1="0" y1="200" x2="800" y2="200" stroke="#1a1a1a"/>
  <line x1="0" y1="250" x2="800" y2="250" stroke="#1a1a1a"/>
  <line x1="0" y1="300" x2="800" y2="300" stroke="#1a1a1a"/>
  <line x1="0" y1="350" x2="800" y2="350" stroke="#1a1a1a"/>
  <line x1="0" y1="400" x2="800" y2="400" stroke="#1a1a1a"/>
  <line x1="200" y1="0" x2="200" y2="450" stroke="#1a1a1a"/>
  <line x1="400" y1="0" x2="400" y2="450" stroke="#1a1a1a"/>
  <line x1="600" y1="0" x2="600" y2="450" stroke="#1a1a1a"/>
  <rect x="350" y="130" width="120" height="180" rx="6" fill="#171717" stroke="#262626"/>
  <line x1="370" y1="170" x2="450" y2="170" stroke="#2563eb" stroke-width="2"/>
  <line x1="370" y1="200" x2="440" y2="200" stroke="#3b82f6" stroke-width="2" opacity="0.6"/>
  <line x1="370" y1="230" x2="430" y2="230" stroke="#3b82f6" stroke-width="2" opacity="0.4"/>
  <text x="400" y="370" fill="#fafafa" font-size="28" text-anchor="middle" font-family="system-ui, sans-serif" font-weight="600">SEO Content Writing</text>
  <text x="400" y="410" fill="#2563eb" font-size="14" text-anchor="middle" font-family="system-ui, sans-serif" font-weight="500">2026 Guide</text>
</svg>
